<?xml version="1.0" standalone="no"?><!DOCTYPE svg PUBLIC "-//W3C//DTD SVG 1.1//EN" "http://www.w3.org/Graphics/SVG/1.1/DTD/svg11.dtd"><svg t="1723972116821" class="icon" viewBox="0 0 1024 1024" version="1.1" xmlns="http://www.w3.org/2000/svg" p-id="8066" xmlns:xlink="http://www.w3.org/1999/xlink" width="200" height="200"><path d="M936.96 168.569905v213.040762a109.714286 109.714286 0 0 1-109.714286 109.714285H538.087619v56.198096h8.728381a73.142857 73.142857 0 0 1 73.142857 73.142857V853.333333a73.142857 73.142857 0 0 1-73.142857 73.142857h-90.575238a73.142857 73.142857 0 0 1-73.142857-73.142857v-232.667428a73.142857 73.142857 0 0 1 73.142857-73.142857h8.704v-129.340953H827.245714a36.571429 36.571429 0 0 0 36.571429-36.571428V168.569905h73.142857zM546.840381 620.665905h-90.575238V853.333333h90.575238v-232.667428zM758.588952 97.52381a73.142857 73.142857 0 0 1 73.142858 73.142857v137.923047a73.142857 73.142857 0 0 1-73.142858 73.142857H170.666667a73.142857 73.142857 0 0 1-73.142857-73.142857V170.666667a73.142857 73.142857 0 0 1 73.142857-73.142857h587.922285z m0 73.142857H170.666667v137.923047h587.922285V170.666667z" p-id="8067"></path></svg>