<?xml version="1.0" standalone="no"?><!DOCTYPE svg PUBLIC "-//W3C//DTD SVG 1.1//EN" "http://www.w3.org/Graphics/SVG/1.1/DTD/svg11.dtd"><svg t="1723972739620" class="icon" viewBox="0 0 1024 1024" version="1.1" xmlns="http://www.w3.org/2000/svg" p-id="10128" xmlns:xlink="http://www.w3.org/1999/xlink" width="200" height="200"><path d="M512 1020.928c-14.848 0-29.696-4.096-41.984-12.288l-392.192-244.224c-20.992-13.312-33.792-35.84-33.792-60.416V307.712c0-25.088 13.312-48.128 34.816-60.928L471.552 12.8c12.288-7.168 26.624-11.264 40.96-11.264s28.672 4.096 40.96 11.264l392.192 234.496c21.504 12.8 34.816 36.352 34.816 60.928v396.288c0 24.576-12.8 47.104-33.792 60.416L553.984 1008.64c-12.8 8.192-27.136 12.288-41.984 12.288z m-394.752-317.952l391.168 243.2c1.536 1.024 2.56 1.024 3.584 1.024 1.024 0 2.048 0 3.584-1.024l391.68-243.2V309.248l-391.168-233.984c-1.536-1.024-2.56-1.024-3.584-1.024-1.024 0-2.048 0-3.584 1.024L117.248 309.248v393.728z" p-id="10129"></path><path d="M511.488 908.8c-20.48 0-36.864-16.896-36.864-37.376l0.512-258.56c0-20.48 16.384-36.864 36.864-36.864s36.864 16.896 36.864 37.376l-0.512 258.56c0 20.48-16.384 36.864-36.864 36.864zM424.448 544.256c-6.656 0-13.312-1.536-18.944-5.632L154.112 386.048c-17.408-10.752-23.04-33.28-12.288-50.688 10.752-17.408 33.28-23.04 50.688-12.288l251.392 152.576c17.408 10.752 23.04 33.28 12.288 50.688-6.656 11.264-18.944 17.92-31.744 17.92zM596.992 544.256c-12.288 0-24.576-6.144-31.744-17.92-10.752-17.408-5.12-40.448 12.288-50.688L829.44 322.56c17.408-10.752 40.448-5.12 50.688 12.288 10.752 17.408 5.12 40.448-12.288 50.688l-251.392 152.576c-6.144 4.096-12.8 6.144-19.456 6.144zM338.944 290.816c0 25.088 20.48 45.056 45.056 45.056 25.088 0 45.056-20.48 45.056-45.056S409.6 245.76 384.512 245.76c-25.088 0-45.568 19.968-45.568 45.056zM247.808 649.216c0 25.088 20.48 45.056 45.056 45.056s45.056-20.48 45.056-45.056c0-25.088-20.48-45.056-45.056-45.056s-45.056 19.968-45.056 45.056zM589.312 290.816c0 25.088 20.48 45.056 45.056 45.056 25.088 0 45.056-20.48 45.056-45.056s-20.48-45.056-45.056-45.056c-24.576 0-45.056 19.968-45.056 45.056zM603.136 769.024c0 25.088 20.48 45.056 45.056 45.056s45.056-20.48 45.056-45.056c0-25.088-20.48-45.056-45.056-45.056s-45.056 19.968-45.056 45.056zM697.856 649.216c0 25.088 20.48 45.056 45.056 45.056s45.056-20.48 45.056-45.056c0-25.088-20.48-45.056-45.056-45.056s-45.056 19.968-45.056 45.056zM793.088 528.896c0 25.088 20.48 45.056 45.056 45.056 25.088 0 45.056-20.48 45.056-45.056 0-25.088-20.48-45.056-45.056-45.056-24.576 0-45.056 20.48-45.056 45.056z" p-id="10130"></path></svg>